<svg width="700" height="550" viewBox="0 0 700 550" fill="none" xmlns="http://www.w3.org/2000/svg">
<rect width="700" height="550" fill="white"/>
<path d="M368.438 161.64C363.086 162.12 358.646 162.36 355.118 162.36C352.766 162.36 351.038 161.808 349.934 160.704C348.83 159.6 348.278 157.872 348.278 155.52V144C348.278 141.48 348.842 139.656 349.97 138.528C351.122 137.376 352.958 136.8 355.478 136.8H368.438V141.84H356.918C355.478 141.84 354.758 142.56 354.758 144V155.52C354.758 156.072 354.914 156.516 355.226 156.852C355.562 157.164 355.982 157.32 356.486 157.32C356.99 157.32 357.542 157.32 358.142 157.32C358.742 157.296 359.366 157.272 360.014 157.248C360.662 157.224 361.31 157.2 361.958 157.176C362.63 157.152 363.482 157.104 364.514 157.032C365.57 156.96 366.878 156.876 368.438 156.78V161.64ZM390.402 156.6C390.402 158.4 389.886 159.816 388.854 160.848C387.846 161.856 386.442 162.36 384.642 162.36H376.362C374.562 162.36 373.146 161.856 372.114 160.848C371.106 159.816 370.602 158.4 370.602 156.6V148.32C370.602 146.52 371.106 145.116 372.114 144.108C373.146 143.076 374.562 142.56 376.362 142.56H384.642C386.442 142.56 387.846 143.076 388.854 144.108C389.886 145.116 390.402 146.52 390.402 148.32V156.6ZM384.102 148.86C384.102 147.9 383.622 147.42 382.662 147.42H378.342C377.382 147.42 376.902 147.9 376.902 148.86V156.06C376.902 157.02 377.382 157.5 378.342 157.5H382.662C383.622 157.5 384.102 157.02 384.102 156.06V148.86ZM404.258 147.78C402.986 147.78 401.546 148.02 399.938 148.5V162H393.638V142.92H399.218L399.578 144.72C400.706 143.976 401.858 143.436 403.034 143.1C404.234 142.74 405.242 142.56 406.058 142.56H407.678C409.31 142.56 410.618 143.052 411.602 144.036C412.586 145.02 413.078 146.328 413.078 147.96V162H406.778V149.04C406.778 148.68 406.658 148.38 406.418 148.14C406.178 147.9 405.878 147.78 405.518 147.78H404.258ZM429.634 162C427.306 162.24 425.026 162.36 422.794 162.36C421.162 162.36 419.854 161.868 418.87 160.884C417.886 159.9 417.394 158.592 417.394 156.96V147.78H415.234V142.92H417.394L418.114 138.6H423.694V142.92H428.194V147.78H423.694V156.06C423.694 156.42 423.814 156.72 424.054 156.96C424.294 157.2 424.594 157.32 424.954 157.32H429.634V162ZM439.198 147.06C438.238 147.06 437.758 147.54 437.758 148.5V150.48H443.878V148.5C443.878 147.54 443.398 147.06 442.438 147.06H439.198ZM449.458 161.64C444.826 162.12 440.626 162.36 436.858 162.36C435.226 162.36 433.918 161.868 432.934 160.884C431.95 159.9 431.458 158.592 431.458 156.96V148.32C431.458 146.52 431.962 145.116 432.97 144.108C434.002 143.076 435.418 142.56 437.218 142.56H444.418C446.218 142.56 447.622 143.076 448.63 144.108C449.662 145.116 450.178 146.52 450.178 148.32V154.98H437.758V156.42C437.758 156.78 437.878 157.08 438.118 157.32C438.358 157.56 438.658 157.68 439.018 157.68C441.394 157.68 444.874 157.5 449.458 157.14V161.64ZM464.024 147.78C462.752 147.78 461.312 148.02 459.704 148.5V162H453.404V142.92H458.984L459.344 144.72C460.472 143.976 461.624 143.436 462.8 143.1C464 142.74 465.008 142.56 465.824 142.56H467.444C469.076 142.56 470.384 143.052 471.368 144.036C472.352 145.02 472.844 146.328 472.844 147.96V162H466.544V149.04C466.544 148.68 466.424 148.38 466.184 148.14C465.944 147.9 465.644 147.78 465.284 147.78H464.024ZM483.999 143.64V162H477.699V148.5H474.999V143.64H483.999ZM477.699 136.44H483.999V141.48H477.699V136.44ZM501.111 162L500.751 160.2C499.623 160.944 498.459 161.496 497.259 161.856C496.083 162.192 495.087 162.36 494.271 162.36H492.651C491.019 162.36 489.711 161.868 488.727 160.884C487.743 159.9 487.251 158.592 487.251 156.96V148.68C487.251 146.88 487.755 145.476 488.763 144.468C489.795 143.436 491.211 142.92 493.011 142.92H500.391V136.8H506.691V162H501.111ZM496.071 157.14C497.343 157.14 498.783 156.9 500.391 156.42V147.78H494.991C494.031 147.78 493.551 148.26 493.551 149.22V155.88C493.551 156.24 493.671 156.54 493.911 156.78C494.151 157.02 494.451 157.14 494.811 157.14H496.071ZM529.726 156.6C529.726 158.4 529.21 159.816 528.178 160.848C527.17 161.856 525.766 162.36 523.966 162.36H515.686C513.886 162.36 512.47 161.856 511.438 160.848C510.43 159.816 509.926 158.4 509.926 156.6V148.32C509.926 146.52 510.43 145.116 511.438 144.108C512.47 143.076 513.886 142.56 515.686 142.56H523.966C525.766 142.56 527.17 143.076 528.178 144.108C529.21 145.116 529.726 146.52 529.726 148.32V156.6ZM523.426 148.86C523.426 147.9 522.946 147.42 521.986 147.42H517.666C516.706 147.42 516.226 147.9 516.226 148.86V156.06C516.226 157.02 516.706 157.5 517.666 157.5H521.986C522.946 157.5 523.426 157.02 523.426 156.06V148.86ZM386.731 200.32C388.003 200.32 389.443 200.08 391.051 199.6V197.44H385.831C385.471 197.44 385.171 197.56 384.931 197.8C384.691 198.04 384.571 198.34 384.571 198.7V199.06C384.571 199.42 384.691 199.72 384.931 199.96C385.171 200.2 385.471 200.32 385.831 200.32H386.731ZM380.071 186.28C384.463 185.8 388.423 185.56 391.951 185.56C393.583 185.56 394.891 186.052 395.875 187.036C396.859 188.02 397.351 189.328 397.351 190.96V205H391.771L391.411 203.2C390.283 203.944 389.119 204.496 387.919 204.856C386.743 205.192 385.747 205.36 384.931 205.36H383.671C382.039 205.36 380.731 204.868 379.747 203.884C378.763 202.9 378.271 201.592 378.271 199.96V198.34C378.271 196.708 378.763 195.4 379.747 194.416C380.731 193.432 382.039 192.94 383.671 192.94H391.051V191.5C391.051 191.14 390.931 190.84 390.691 190.6C390.451 190.36 390.151 190.24 389.791 190.24C388.231 190.24 386.503 190.312 384.607 190.456C382.735 190.6 381.223 190.708 380.071 190.78V186.28ZM409.401 200.14C410.673 200.14 412.113 199.9 413.721 199.42V185.92H420.021V205H414.441L414.081 203.2C412.953 203.944 411.789 204.496 410.589 204.856C409.413 205.192 408.417 205.36 407.601 205.36H405.981C404.349 205.36 403.041 204.868 402.057 203.884C401.073 202.9 400.581 201.592 400.581 199.96V185.92H406.881V198.88C406.881 199.24 407.001 199.54 407.241 199.78C407.481 200.02 407.781 200.14 408.141 200.14H409.401ZM407.421 184.84L409.581 178.72H416.061L412.101 184.84H407.421ZM434.229 190.78C432.957 190.78 431.517 191.02 429.909 191.5V205H423.609V185.92H429.189L429.549 187.72C430.677 186.976 431.829 186.436 433.005 186.1C434.205 185.74 435.213 185.56 436.029 185.56H437.649C439.281 185.56 440.589 186.052 441.573 187.036C442.557 188.02 443.049 189.328 443.049 190.96V205H436.749V192.04C436.749 191.68 436.629 191.38 436.389 191.14C436.149 190.9 435.849 190.78 435.489 190.78H434.229ZM467.697 190.78C466.425 190.78 464.985 191.02 463.377 191.5V205H457.077V185.92H462.657L463.017 187.72C464.145 186.976 465.297 186.436 466.473 186.1C467.673 185.74 468.681 185.56 469.497 185.56H471.117C472.749 185.56 474.057 186.052 475.041 187.036C476.025 188.02 476.517 189.328 476.517 190.96V205H470.217V192.04C470.217 191.68 470.097 191.38 469.857 191.14C469.617 190.9 469.317 190.78 468.957 190.78H467.697ZM499.193 199.6C499.193 201.4 498.677 202.816 497.645 203.848C496.637 204.856 495.233 205.36 493.433 205.36H485.153C483.353 205.36 481.937 204.856 480.905 203.848C479.897 202.816 479.393 201.4 479.393 199.6V191.32C479.393 189.52 479.897 188.116 480.905 187.108C481.937 186.076 483.353 185.56 485.153 185.56H493.433C495.233 185.56 496.637 186.076 497.645 187.108C498.677 188.116 499.193 189.52 499.193 191.32V199.6ZM492.893 191.86C492.893 190.9 492.413 190.42 491.453 190.42H487.133C486.173 190.42 485.693 190.9 485.693 191.86V199.06C485.693 200.02 486.173 200.5 487.133 200.5H491.453C492.413 200.5 492.893 200.02 492.893 199.06V191.86ZM358.904 248L358.544 246.2C357.416 246.944 356.252 247.496 355.052 247.856C353.876 248.192 352.88 248.36 352.064 248.36H350.444C348.812 248.36 347.504 247.868 346.52 246.884C345.536 245.9 345.044 244.592 345.044 242.96V234.68C345.044 232.88 345.548 231.476 346.556 230.468C347.588 229.436 349.004 228.92 350.804 228.92H358.184V222.8H364.484V248H358.904ZM353.864 243.14C355.136 243.14 356.576 242.9 358.184 242.42V233.78H352.784C351.824 233.78 351.344 234.26 351.344 235.22V241.88C351.344 242.24 351.464 242.54 351.704 242.78C351.944 243.02 352.244 243.14 352.604 243.14H353.864ZM375.999 229.64V248H369.699V234.5H366.999V229.64H375.999ZM369.699 222.44H375.999V227.48H369.699V222.44ZM378.891 242.96C383.763 243.32 387.603 243.5 390.411 243.5C390.771 243.5 391.071 243.38 391.311 243.14C391.551 242.9 391.671 242.6 391.671 242.24V240.98H383.931C382.299 240.98 380.991 240.488 380.007 239.504C379.023 238.52 378.531 237.212 378.531 235.58V234.32C378.531 232.688 379.023 231.38 380.007 230.396C380.991 229.412 382.299 228.92 383.931 228.92H396.171V233.6H386.091C385.731 233.6 385.431 233.72 385.191 233.96C384.951 234.2 384.831 234.5 384.831 234.86C384.831 235.22 384.951 235.52 385.191 235.76C385.431 236 385.731 236.12 386.091 236.12H392.571C394.203 236.12 395.511 236.612 396.495 237.596C397.479 238.58 397.971 239.888 397.971 241.52V242.96C397.971 244.592 397.479 245.9 396.495 246.884C395.511 247.868 394.203 248.36 392.571 248.36C388.323 248.36 383.763 248.12 378.891 247.64V242.96ZM411.113 233.78C409.841 233.78 408.401 234.02 406.793 234.5V243.14H412.193C413.153 243.14 413.633 242.66 413.633 241.7V235.04C413.633 234.68 413.513 234.38 413.273 234.14C413.033 233.9 412.733 233.78 412.373 233.78H411.113ZM406.793 248V254.12H400.493V228.92H406.073L406.433 230.72C407.561 229.976 408.713 229.436 409.889 229.1C411.089 228.74 412.097 228.56 412.913 228.56H414.533C416.165 228.56 417.473 229.052 418.457 230.036C419.441 231.02 419.933 232.328 419.933 233.96V242.24C419.933 244.04 419.417 245.456 418.385 246.488C417.377 247.496 415.973 248 414.173 248H406.793ZM442.609 242.6C442.609 244.4 442.093 245.816 441.061 246.848C440.053 247.856 438.649 248.36 436.849 248.36H428.569C426.769 248.36 425.353 247.856 424.321 246.848C423.313 245.816 422.809 244.4 422.809 242.6V234.32C422.809 232.52 423.313 231.116 424.321 230.108C425.353 229.076 426.769 228.56 428.569 228.56H436.849C438.649 228.56 440.053 229.076 441.061 230.108C442.093 231.116 442.609 232.52 442.609 234.32V242.6ZM436.309 234.86C436.309 233.9 435.829 233.42 434.869 233.42H430.549C429.589 233.42 429.109 233.9 429.109 234.86V242.06C429.109 243.02 429.589 243.5 430.549 243.5H434.869C435.829 243.5 436.309 243.02 436.309 242.06V234.86ZM456.465 233.78C455.193 233.78 453.753 234.02 452.145 234.5V248H445.845V228.92H451.425L451.785 230.72C452.913 229.976 454.065 229.436 455.241 229.1C456.441 228.74 457.449 228.56 458.265 228.56H459.885C461.517 228.56 462.825 229.052 463.809 230.036C464.793 231.02 465.285 232.328 465.285 233.96V248H458.985V235.04C458.985 234.68 458.865 234.38 458.625 234.14C458.385 233.9 458.085 233.78 457.725 233.78H456.465ZM476.441 229.64V248H470.141V234.5H467.441V229.64H476.441ZM470.141 222.44H476.441V227.48H470.141V222.44ZM492.832 234.68C492.832 234.32 492.712 234.02 492.472 233.78C492.232 233.54 491.932 233.42 491.572 233.42H490.672C489.664 233.42 488.788 233.468 488.044 233.564C487.324 233.66 486.76 233.732 486.352 233.78V243.14H491.392C492.352 243.14 492.832 242.66 492.832 241.7V234.68ZM486.352 229.28C488.68 228.8 490.72 228.56 492.472 228.56H493.732C495.364 228.56 496.672 229.052 497.656 230.036C498.64 231.02 499.132 232.328 499.132 233.96V242.24C499.132 244.04 498.616 245.456 497.584 246.488C496.576 247.496 495.172 248 493.372 248H480.052V222.8H486.352V229.28ZM512.096 248C510.488 248.24 508.952 248.36 507.488 248.36C506.048 248.36 504.836 247.868 503.852 246.884C502.868 245.9 502.376 244.592 502.376 242.96V222.8H508.676V242.06C508.676 242.42 508.796 242.72 509.036 242.96C509.276 243.2 509.576 243.32 509.936 243.32H512.096V248ZM521.991 233.06C521.031 233.06 520.551 233.54 520.551 234.5V236.48H526.671V234.5C526.671 233.54 526.191 233.06 525.231 233.06H521.991ZM532.251 247.64C527.619 248.12 523.419 248.36 519.651 248.36C518.019 248.36 516.711 247.868 515.727 246.884C514.743 245.9 514.251 244.592 514.251 242.96V234.32C514.251 232.52 514.755 231.116 515.763 230.108C516.795 229.076 518.211 228.56 520.011 228.56H527.211C529.011 228.56 530.415 229.076 531.423 230.108C532.455 231.116 532.971 232.52 532.971 234.32V240.98H520.551V242.42C520.551 242.78 520.671 243.08 520.911 243.32C521.151 243.56 521.451 243.68 521.811 243.68C524.187 243.68 527.667 243.5 532.251 243.14V247.64Z" fill="black"/>
<path d="M204.831 356C188.413 363.479 177 380.03 177 399.248C177 425.482 198.266 446.748 224.5 446.748C236.534 446.748 247.52 442.27 255.89 434.894C246.761 446.954 232.292 454.748 216 454.748C188.386 454.748 166 432.362 166 404.748C166 380.973 182.594 361.074 204.831 356Z" fill="url(#paint0_linear_13_22)"/>
<path d="M225 357.748C237.85 357.748 249.317 363.661 256.834 372.913C249.783 367.184 240.793 363.748 231 363.748C208.356 363.748 190 382.104 190 404.748C190 414.541 193.436 423.531 199.165 430.582C189.913 423.065 184 411.598 184 398.748C184 376.104 202.356 357.748 225 357.748Z" fill="url(#paint1_linear_13_22)"/>
<path d="M227.186 413.748H220.946L229.426 391.348H235.826L244.306 413.748H238.066L236.626 409.748H228.626L227.186 413.748ZM230.066 405.588H235.186L232.626 398.068L230.066 405.588ZM253.424 409.428C254.555 409.428 255.835 409.215 257.264 408.788V396.788H262.864V413.748H257.904L257.584 412.148C256.582 412.809 255.547 413.3 254.48 413.62C253.435 413.919 252.55 414.068 251.824 414.068H250.384C248.934 414.068 247.771 413.631 246.896 412.756C246.022 411.881 245.584 410.719 245.584 409.268V396.788H251.184V408.308C251.184 408.628 251.291 408.895 251.504 409.108C251.718 409.321 251.984 409.428 252.304 409.428H253.424ZM277.893 413.748C275.824 413.961 273.797 414.068 271.813 414.068C270.362 414.068 269.2 413.631 268.325 412.756C267.45 411.881 267.013 410.719 267.013 409.268V401.108H265.093V396.788H267.013L267.653 392.948H272.613V396.788H276.613V401.108H272.613V408.468C272.613 408.788 272.72 409.055 272.933 409.268C273.146 409.481 273.413 409.588 273.733 409.588H277.893V413.748ZM296.802 408.948C296.802 410.548 296.343 411.807 295.426 412.724C294.53 413.62 293.282 414.068 291.682 414.068H284.322C282.722 414.068 281.463 413.62 280.546 412.724C279.65 411.807 279.202 410.548 279.202 408.948V401.588C279.202 399.988 279.65 398.74 280.546 397.844C281.463 396.927 282.722 396.468 284.322 396.468H291.682C293.282 396.468 294.53 396.927 295.426 397.844C296.343 398.74 296.802 399.988 296.802 401.588V408.948ZM291.202 402.068C291.202 401.215 290.775 400.788 289.922 400.788H286.082C285.229 400.788 284.802 401.215 284.802 402.068V408.468C284.802 409.321 285.229 409.748 286.082 409.748H289.922C290.775 409.748 291.202 409.321 291.202 408.468V402.068ZM307.518 409.428C308.649 409.428 309.929 409.215 311.358 408.788V396.788H316.958V413.748H311.998L311.678 412.148C310.675 412.809 309.641 413.3 308.574 413.62C307.529 413.919 306.643 414.068 305.918 414.068H304.478C303.027 414.068 301.865 413.631 300.99 412.756C300.115 411.881 299.678 410.719 299.678 409.268V396.788H305.278V408.308C305.278 408.628 305.385 408.895 305.598 409.108C305.811 409.321 306.078 409.428 306.398 409.428H307.518ZM329.587 401.108C328.456 401.108 327.176 401.321 325.747 401.748V413.748H320.147V396.788H325.107L325.427 398.388C326.43 397.727 327.454 397.247 328.499 396.948C329.566 396.628 330.462 396.468 331.187 396.468H332.627C334.078 396.468 335.24 396.905 336.115 397.78C336.99 398.655 337.427 399.817 337.427 401.268V413.748H331.827V402.228C331.827 401.908 331.72 401.641 331.507 401.428C331.294 401.215 331.027 401.108 330.707 401.108H329.587ZM347.023 409.588C348.154 409.588 349.434 409.375 350.863 408.948V407.028H346.223C345.903 407.028 345.636 407.135 345.423 407.348C345.21 407.561 345.103 407.828 345.103 408.148V408.468C345.103 408.788 345.21 409.055 345.423 409.268C345.636 409.481 345.903 409.588 346.223 409.588H347.023ZM341.103 397.108C345.007 396.681 348.527 396.468 351.663 396.468C353.114 396.468 354.276 396.905 355.151 397.78C356.026 398.655 356.463 399.817 356.463 401.268V413.748H351.503L351.183 412.148C350.18 412.809 349.146 413.3 348.079 413.62C347.034 413.919 346.148 414.068 345.423 414.068H344.303C342.852 414.068 341.69 413.631 340.815 412.756C339.94 411.881 339.503 410.719 339.503 409.268V407.828C339.503 406.377 339.94 405.215 340.815 404.34C341.69 403.465 342.852 403.028 344.303 403.028H350.863V401.748C350.863 401.428 350.756 401.161 350.543 400.948C350.33 400.735 350.063 400.628 349.743 400.628C348.356 400.628 346.82 400.692 345.135 400.82C343.471 400.948 342.127 401.044 341.103 401.108V397.108ZM367.974 413.748C366.545 413.961 365.18 414.068 363.878 414.068C362.598 414.068 361.521 413.631 360.646 412.756C359.772 411.881 359.334 410.719 359.334 409.268V391.348H364.934V408.468C364.934 408.788 365.041 409.055 365.254 409.268C365.468 409.481 365.734 409.588 366.054 409.588H367.974V413.748ZM379.451 409.108C385.296 409.428 389.254 409.588 391.323 409.588C391.814 409.588 392.198 409.449 392.475 409.172C392.774 408.873 392.923 408.479 392.923 407.988V405.108H385.563C383.323 405.108 381.691 404.607 380.667 403.604C379.664 402.58 379.163 400.948 379.163 398.708V397.748C379.163 395.508 379.664 393.887 380.667 392.884C381.691 391.86 383.323 391.348 385.563 391.348H396.795V395.828H386.843C385.563 395.828 384.923 396.468 384.923 397.748V398.388C384.923 399.668 385.563 400.308 386.843 400.308H392.603C394.694 400.308 396.23 400.799 397.211 401.78C398.192 402.761 398.683 404.297 398.683 406.388V407.988C398.683 410.079 398.192 411.615 397.211 412.596C396.23 413.577 394.694 414.068 392.603 414.068C391.515 414.068 390.363 414.047 389.147 414.004L386.203 413.876C384.027 413.769 381.776 413.62 379.451 413.428V409.108ZM418.521 408.948C418.521 410.548 418.062 411.807 417.145 412.724C416.249 413.62 415.001 414.068 413.401 414.068H406.041C404.441 414.068 403.182 413.62 402.265 412.724C401.369 411.807 400.921 410.548 400.921 408.948V401.588C400.921 399.988 401.369 398.74 402.265 397.844C403.182 396.927 404.441 396.468 406.041 396.468H413.401C415.001 396.468 416.249 396.927 417.145 397.844C418.062 398.74 418.521 399.988 418.521 401.588V408.948ZM412.921 402.068C412.921 401.215 412.494 400.788 411.641 400.788H407.801C406.947 400.788 406.521 401.215 406.521 402.068V408.468C406.521 409.321 406.947 409.748 407.801 409.748H411.641C412.494 409.748 412.921 409.321 412.921 408.468V402.068ZM430.037 413.748C428.608 413.961 427.242 414.068 425.941 414.068C424.661 414.068 423.584 413.631 422.709 412.756C421.834 411.881 421.397 410.719 421.397 409.268V391.348H426.997V408.468C426.997 408.788 427.104 409.055 427.317 409.268C427.53 409.481 427.797 409.588 428.117 409.588H430.037V413.748ZM440.112 409.428C441.243 409.428 442.523 409.215 443.952 408.788V396.788H449.552V413.748H444.592L444.272 412.148C443.269 412.809 442.235 413.3 441.168 413.62C440.123 413.919 439.237 414.068 438.512 414.068H437.072C435.621 414.068 434.459 413.631 433.584 412.756C432.709 411.881 432.272 410.719 432.272 409.268V396.788H437.872V408.308C437.872 408.628 437.979 408.895 438.192 409.108C438.405 409.321 438.672 409.428 438.992 409.428H440.112ZM464.581 413.748C462.511 413.961 460.485 414.068 458.501 414.068C457.05 414.068 455.887 413.631 455.013 412.756C454.138 411.881 453.701 410.719 453.701 409.268V401.108H451.781V396.788H453.701L454.341 392.948H459.301V396.788H463.301V401.108H459.301V408.468C459.301 408.788 459.407 409.055 459.621 409.268C459.834 409.481 460.101 409.588 460.421 409.588H464.581V413.748ZM473.249 397.428V413.748H467.649V401.748H465.249V397.428H473.249ZM467.649 391.028H473.249V395.508H467.649V391.028ZM493.739 408.948C493.739 410.548 493.281 411.807 492.363 412.724C491.467 413.62 490.219 414.068 488.619 414.068H481.259C479.659 414.068 478.401 413.62 477.483 412.724C476.587 411.807 476.139 410.548 476.139 408.948V401.588C476.139 399.988 476.587 398.74 477.483 397.844C478.401 396.927 479.659 396.468 481.259 396.468H488.619C490.219 396.468 491.467 396.927 492.363 397.844C493.281 398.74 493.739 399.988 493.739 401.588V408.948ZM488.139 402.068C488.139 401.215 487.713 400.788 486.859 400.788H483.019C482.166 400.788 481.739 401.215 481.739 402.068V408.468C481.739 409.321 482.166 409.748 483.019 409.748H486.859C487.713 409.748 488.139 409.321 488.139 408.468V402.068ZM506.056 401.108C504.925 401.108 503.645 401.321 502.216 401.748V413.748H496.616V396.788H501.576L501.896 398.388C502.898 397.727 503.922 397.247 504.968 396.948C506.034 396.628 506.93 396.468 507.656 396.468H509.096C510.546 396.468 511.709 396.905 512.584 397.78C513.458 398.655 513.896 399.817 513.896 401.268V413.748H508.296V402.228C508.296 401.908 508.189 401.641 507.976 401.428C507.762 401.215 507.496 401.108 507.176 401.108H506.056ZM516.132 409.268C520.463 409.588 523.876 409.748 526.372 409.748C526.692 409.748 526.959 409.641 527.172 409.428C527.385 409.215 527.492 408.948 527.492 408.628V407.508H520.612C519.161 407.508 517.999 407.071 517.124 406.196C516.249 405.321 515.812 404.159 515.812 402.708V401.588C515.812 400.137 516.249 398.975 517.124 398.1C517.999 397.225 519.161 396.788 520.612 396.788H531.492V400.948H522.532C522.212 400.948 521.945 401.055 521.732 401.268C521.519 401.481 521.412 401.748 521.412 402.068C521.412 402.388 521.519 402.655 521.732 402.868C521.945 403.081 522.212 403.188 522.532 403.188H528.292C529.743 403.188 530.905 403.625 531.78 404.5C532.655 405.375 533.092 406.537 533.092 407.988V409.268C533.092 410.719 532.655 411.881 531.78 412.756C530.905 413.631 529.743 414.068 528.292 414.068C524.516 414.068 520.463 413.855 516.132 413.428V409.268Z" fill="#002060"/>
<path d="M310.916 430.898L308.816 434.648H306.716L304.616 430.898V436.748H301.916V426.248H304.766L307.766 431.798L310.766 426.248H313.616V436.748H310.916V430.898ZM318.421 434.798C318.951 434.798 319.551 434.698 320.221 434.498V433.598H318.046C317.896 433.598 317.771 433.648 317.671 433.748C317.571 433.848 317.521 433.973 317.521 434.123V434.273C317.521 434.423 317.571 434.548 317.671 434.648C317.771 434.748 317.896 434.798 318.046 434.798H318.421ZM315.646 428.948C317.476 428.748 319.126 428.648 320.596 428.648C321.276 428.648 321.821 428.853 322.231 429.263C322.641 429.673 322.846 430.218 322.846 430.898V436.748H320.521L320.371 435.998C319.901 436.308 319.416 436.538 318.916 436.688C318.426 436.828 318.011 436.898 317.671 436.898H317.146C316.466 436.898 315.921 436.693 315.511 436.283C315.101 435.873 314.896 435.328 314.896 434.648V433.973C314.896 433.293 315.101 432.748 315.511 432.338C315.921 431.928 316.466 431.723 317.146 431.723H320.221V431.123C320.221 430.973 320.171 430.848 320.071 430.748C319.971 430.648 319.846 430.598 319.696 430.598C319.046 430.598 318.326 430.628 317.536 430.688C316.756 430.748 316.126 430.793 315.646 430.823V428.948ZM328.617 430.823C328.087 430.823 327.487 430.923 326.817 431.123V436.748H324.192V428.798H326.517L326.667 429.548C327.137 429.238 327.617 429.013 328.107 428.873C328.607 428.723 329.027 428.648 329.367 428.648H330.042C330.722 428.648 331.267 428.853 331.677 429.263C332.087 429.673 332.292 430.218 332.292 430.898V436.748H329.667V431.348C329.667 431.198 329.617 431.073 329.517 430.973C329.417 430.873 329.292 430.823 329.142 430.823H328.617ZM337.316 434.723C337.846 434.723 338.446 434.623 339.116 434.423V428.798H341.741V436.748H339.416L339.266 435.998C338.796 436.308 338.311 436.538 337.811 436.688C337.321 436.828 336.906 436.898 336.566 436.898H335.891C335.211 436.898 334.666 436.693 334.256 436.283C333.846 435.873 333.641 435.328 333.641 434.648V428.798H336.266V434.198C336.266 434.348 336.316 434.473 336.416 434.573C336.516 434.673 336.641 434.723 336.791 434.723H337.316ZM349.685 428.273C349.395 428.253 349.01 428.223 348.53 428.183C348.05 428.143 347.635 428.123 347.285 428.123C346.935 428.123 346.71 428.173 346.61 428.273C346.51 428.373 346.46 428.498 346.46 428.648V429.398H348.935V431.423H346.46V436.748H343.835V431.423H342.785V429.398H343.835V428.348C343.835 427.668 344.04 427.123 344.45 426.713C344.86 426.303 345.405 426.098 346.085 426.098C346.695 426.098 347.34 426.118 348.02 426.158C348.7 426.198 349.255 426.228 349.685 426.248V428.273ZM352.684 434.798C353.214 434.798 353.814 434.698 354.484 434.498V433.598H352.309C352.159 433.598 352.034 433.648 351.934 433.748C351.834 433.848 351.784 433.973 351.784 434.123V434.273C351.784 434.423 351.834 434.548 351.934 434.648C352.034 434.748 352.159 434.798 352.309 434.798H352.684ZM349.909 428.948C351.739 428.748 353.389 428.648 354.859 428.648C355.539 428.648 356.084 428.853 356.494 429.263C356.904 429.673 357.109 430.218 357.109 430.898V436.748H354.784L354.634 435.998C354.164 436.308 353.679 436.538 353.179 436.688C352.689 436.828 352.274 436.898 351.934 436.898H351.409C350.729 436.898 350.184 436.693 349.774 436.283C349.364 435.873 349.159 435.328 349.159 434.648V433.973C349.159 433.293 349.364 432.748 349.774 432.338C350.184 431.928 350.729 431.723 351.409 431.723H354.484V431.123C354.484 430.973 354.434 430.848 354.334 430.748C354.234 430.648 354.109 430.598 353.959 430.598C353.309 430.598 352.589 430.628 351.799 430.688C351.019 430.748 350.389 430.793 349.909 430.823V428.948ZM365.505 436.598C363.635 436.798 361.985 436.898 360.555 436.898C359.875 436.898 359.33 436.693 358.92 436.283C358.51 435.873 358.305 435.328 358.305 434.648V431.198C358.305 430.448 358.515 429.863 358.935 429.443C359.365 429.013 359.955 428.798 360.705 428.798H365.505V430.823H361.53C361.13 430.823 360.93 431.023 360.93 431.423V434.348C360.93 434.498 360.98 434.623 361.08 434.723C361.18 434.823 361.305 434.873 361.455 434.873C362.355 434.873 363.705 434.798 365.505 434.648V436.598ZM372.252 436.748C371.282 436.848 370.332 436.898 369.402 436.898C368.722 436.898 368.177 436.693 367.767 436.283C367.357 435.873 367.152 435.328 367.152 434.648V430.823H366.252V428.798H367.152L367.452 426.998H369.777V428.798H371.652V430.823H369.777V434.273C369.777 434.423 369.827 434.548 369.927 434.648C370.027 434.748 370.152 434.798 370.302 434.798H372.252V436.748ZM376.984 434.723C377.514 434.723 378.114 434.623 378.784 434.423V428.798H381.409V436.748H379.084L378.934 435.998C378.464 436.308 377.979 436.538 377.479 436.688C376.989 436.828 376.574 436.898 376.234 436.898H375.559C374.879 436.898 374.334 436.693 373.924 436.283C373.514 435.873 373.309 435.328 373.309 434.648V428.798H375.934V434.198C375.934 434.348 375.984 434.473 376.084 434.573C376.184 434.673 376.309 434.723 376.459 434.723H376.984ZM387.478 430.973C386.848 430.973 386.198 431.123 385.528 431.423V436.748H382.903V428.798H385.228L385.378 429.773C386.238 429.023 387.138 428.648 388.078 428.648H388.753V430.973H387.478ZM393.103 429.098V436.748H390.478V431.123H389.353V429.098H393.103ZM390.478 426.098H393.103V428.198H390.478V426.098ZM399.032 430.823C398.502 430.823 397.902 430.923 397.232 431.123V436.748H394.607V428.798H396.932L397.082 429.548C397.552 429.238 398.032 429.013 398.522 428.873C399.022 428.723 399.442 428.648 399.782 428.648H400.457C401.137 428.648 401.682 428.853 402.092 429.263C402.502 429.673 402.707 430.218 402.707 430.898V436.748H400.082V431.348C400.082 431.198 400.032 431.073 399.932 430.973C399.832 430.873 399.707 430.823 399.557 430.823H399.032ZM409.231 436.148C408.261 436.348 407.411 436.448 406.681 436.448H406.156C405.476 436.448 404.931 436.243 404.521 435.833C404.111 435.423 403.906 434.878 403.906 434.198V431.198C403.906 430.448 404.116 429.863 404.536 429.443C404.966 429.013 405.556 428.798 406.306 428.798H411.856V437.198C411.856 437.878 411.651 438.423 411.241 438.833C410.831 439.243 410.286 439.448 409.606 439.448C408.036 439.448 406.286 439.348 404.356 439.148V437.198C406.266 437.348 407.716 437.423 408.706 437.423C408.856 437.423 408.981 437.373 409.081 437.273C409.181 437.173 409.231 437.048 409.231 436.898V436.148ZM407.431 434.423C408.061 434.423 408.661 434.373 409.231 434.273V430.823H407.131C406.731 430.823 406.531 431.023 406.531 431.423V433.898C406.531 434.048 406.581 434.173 406.681 434.273C406.781 434.373 406.906 434.423 407.056 434.423H407.431ZM419.879 436.748H416.954L420.929 426.248H423.929L427.904 436.748H424.979L424.304 434.873H420.554L419.879 436.748ZM421.229 432.923H423.629L422.429 429.398L421.229 432.923ZM432.179 434.723C432.709 434.723 433.309 434.623 433.979 434.423V428.798H436.604V436.748H434.279L434.129 435.998C433.659 436.308 433.174 436.538 432.674 436.688C432.184 436.828 431.769 436.898 431.429 436.898H430.754C430.074 436.898 429.529 436.693 429.119 436.283C428.709 435.873 428.504 435.328 428.504 434.648V428.798H431.129V434.198C431.129 434.348 431.179 434.473 431.279 434.573C431.379 434.673 431.504 434.723 431.654 434.723H432.179ZM443.649 436.748C442.679 436.848 441.729 436.898 440.799 436.898C440.119 436.898 439.574 436.693 439.164 436.283C438.754 435.873 438.549 435.328 438.549 434.648V430.823H437.649V428.798H438.549L438.849 426.998H441.174V428.798H443.049V430.823H441.174V434.273C441.174 434.423 441.224 434.548 441.324 434.648C441.424 434.748 441.549 434.798 441.699 434.798H443.649V436.748ZM452.512 434.498C452.512 435.248 452.297 435.838 451.867 436.268C451.447 436.688 450.862 436.898 450.112 436.898H446.662C445.912 436.898 445.322 436.688 444.892 436.268C444.472 435.838 444.262 435.248 444.262 434.498V431.048C444.262 430.298 444.472 429.713 444.892 429.293C445.322 428.863 445.912 428.648 446.662 428.648H450.112C450.862 428.648 451.447 428.863 451.867 429.293C452.297 429.713 452.512 430.298 452.512 431.048V434.498ZM449.887 431.273C449.887 430.873 449.687 430.673 449.287 430.673H447.487C447.087 430.673 446.887 430.873 446.887 431.273V434.273C446.887 434.673 447.087 434.873 447.487 434.873H449.287C449.687 434.873 449.887 434.673 449.887 434.273V431.273ZM459.185 428.648C459.995 428.648 460.62 428.948 461.06 429.548C461.52 429.238 462.015 429.013 462.545 428.873C463.085 428.723 463.565 428.648 463.985 428.648H464.135C464.815 428.648 465.36 428.853 465.77 429.263C466.18 429.673 466.385 430.218 466.385 430.898V436.748H463.76V431.348C463.76 431.198 463.71 431.073 463.61 430.973C463.51 430.873 463.385 430.823 463.235 430.823H463.16C462.71 430.823 462.135 430.923 461.435 431.123V436.748H458.81V431.348C458.81 431.198 458.76 431.073 458.66 430.973C458.56 430.873 458.435 430.823 458.285 430.823H458.21C457.76 430.823 457.185 430.923 456.485 431.123V436.748H453.86V428.798H456.185L456.335 429.548C456.805 429.238 457.285 429.013 457.775 428.873C458.275 428.723 458.695 428.648 459.035 428.648H459.185ZM470.882 434.798C471.412 434.798 472.012 434.698 472.682 434.498V433.598H470.507C470.357 433.598 470.232 433.648 470.132 433.748C470.032 433.848 469.982 433.973 469.982 434.123V434.273C469.982 434.423 470.032 434.548 470.132 434.648C470.232 434.748 470.357 434.798 470.507 434.798H470.882ZM468.107 428.948C469.937 428.748 471.587 428.648 473.057 428.648C473.737 428.648 474.282 428.853 474.692 429.263C475.102 429.673 475.307 430.218 475.307 430.898V436.748H472.982L472.832 435.998C472.362 436.308 471.877 436.538 471.377 436.688C470.887 436.828 470.472 436.898 470.132 436.898H469.607C468.927 436.898 468.382 436.693 467.972 436.283C467.562 435.873 467.357 435.328 467.357 434.648V433.973C467.357 433.293 467.562 432.748 467.972 432.338C468.382 431.928 468.927 431.723 469.607 431.723H472.682V431.123C472.682 430.973 472.632 430.848 472.532 430.748C472.432 430.648 472.307 430.598 472.157 430.598C471.507 430.598 470.787 430.628 469.997 430.688C469.217 430.748 468.587 430.793 468.107 430.823V428.948ZM482.203 436.748C481.233 436.848 480.283 436.898 479.353 436.898C478.673 436.898 478.128 436.693 477.718 436.283C477.308 435.873 477.103 435.328 477.103 434.648V430.823H476.203V428.798H477.103L477.403 426.998H479.728V428.798H481.603V430.823H479.728V434.273C479.728 434.423 479.778 434.548 479.878 434.648C479.978 434.748 480.103 434.798 480.253 434.798H482.203V436.748ZM486.267 429.098V436.748H483.642V431.123H482.517V429.098H486.267ZM483.642 426.098H486.267V428.198H483.642V426.098ZM494.746 430.823L490.621 434.723H494.746V436.748H487.321V434.723L491.446 430.823H487.321V428.798H494.746V430.823ZM498.949 434.798C499.479 434.798 500.079 434.698 500.749 434.498V433.598H498.574C498.424 433.598 498.299 433.648 498.199 433.748C498.099 433.848 498.049 433.973 498.049 434.123V434.273C498.049 434.423 498.099 434.548 498.199 434.648C498.299 434.748 498.424 434.798 498.574 434.798H498.949ZM496.174 428.948C498.004 428.748 499.654 428.648 501.124 428.648C501.804 428.648 502.349 428.853 502.759 429.263C503.169 429.673 503.374 430.218 503.374 430.898V436.748H501.049L500.899 435.998C500.429 436.308 499.944 436.538 499.444 436.688C498.954 436.828 498.539 436.898 498.199 436.898H497.674C496.994 436.898 496.449 436.693 496.039 436.283C495.629 435.873 495.424 435.328 495.424 434.648V433.973C495.424 433.293 495.629 432.748 496.039 432.338C496.449 431.928 496.994 431.723 497.674 431.723H500.749V431.123C500.749 430.973 500.699 430.848 500.599 430.748C500.499 430.648 500.374 430.598 500.224 430.598C499.574 430.598 498.854 430.628 498.064 430.688C497.284 430.748 496.654 430.793 496.174 430.823V428.948ZM510.27 436.748C509.3 436.848 508.35 436.898 507.42 436.898C506.74 436.898 506.195 436.693 505.785 436.283C505.375 435.873 505.17 435.328 505.17 434.648V430.823H504.27V428.798H505.17L505.47 426.998H507.795V428.798H509.67V430.823H507.795V434.273C507.795 434.423 507.845 434.548 507.945 434.648C508.045 434.748 508.17 434.798 508.32 434.798H510.27V436.748ZM514.333 429.098V436.748H511.708V431.123H510.583V429.098H514.333ZM511.708 426.098H514.333V428.198H511.708V426.098ZM523.938 434.498C523.938 435.248 523.723 435.838 523.293 436.268C522.873 436.688 522.288 436.898 521.538 436.898H518.088C517.338 436.898 516.748 436.688 516.318 436.268C515.898 435.838 515.688 435.248 515.688 434.498V431.048C515.688 430.298 515.898 429.713 516.318 429.293C516.748 428.863 517.338 428.648 518.088 428.648H521.538C522.288 428.648 522.873 428.863 523.293 429.293C523.723 429.713 523.938 430.298 523.938 431.048V434.498ZM521.313 431.273C521.313 430.873 521.113 430.673 520.713 430.673H518.913C518.513 430.673 518.313 430.873 518.313 431.273V434.273C518.313 434.673 518.513 434.873 518.913 434.873H520.713C521.113 434.873 521.313 434.673 521.313 434.273V431.273ZM529.711 430.823C529.181 430.823 528.581 430.923 527.911 431.123V436.748H525.286V428.798H527.611L527.761 429.548C528.231 429.238 528.711 429.013 529.201 428.873C529.701 428.723 530.121 428.648 530.461 428.648H531.136C531.816 428.648 532.361 428.853 532.771 429.263C533.181 429.673 533.386 430.218 533.386 430.898V436.748H530.761V431.348C530.761 431.198 530.711 431.073 530.611 430.973C530.511 430.873 530.386 430.823 530.236 430.823H529.711Z" fill="#999999"/>
<ellipse cx="191.5" cy="234.192" rx="17.7632" ry="14.8077" fill="#002060"/>
<path d="M188.738 198.664C189.773 201.101 193.227 201.101 194.262 198.664L224.803 126.715C225.643 124.736 224.191 122.542 222.041 122.542H160.959C158.809 122.542 157.357 124.736 158.197 126.715L188.738 198.664Z" fill="#002060"/>
<defs>
<linearGradient id="paint0_linear_13_22" x1="216" y1="354.748" x2="216" y2="454.748" gradientUnits="userSpaceOnUse">
<stop stop-color="#79EBFF"/>
<stop offset="1" stop-color="#36517B"/>
</linearGradient>
<linearGradient id="paint1_linear_13_22" x1="225" y1="357.748" x2="225" y2="439.748" gradientUnits="userSpaceOnUse">
<stop stop-color="white"/>
<stop offset="0.509615" stop-color="#508FA1"/>
</linearGradient>
</defs>
</svg>
